<svg width="1321" height="790" viewBox="0 0 1321 790" fill="none" xmlns="http://www.w3.org/2000/svg">
<path opacity="0.35" fill-rule="evenodd" clip-rule="evenodd" d="M1234.51 553.554C1276.34 511.727 1305.24 461.867 1321.21 408.94V528.336C1306.77 550.07 1289.98 570.698 1270.82 589.858L1070.67 790H998.067L1234.51 553.554ZM1270.82 27.2106C1289.98 46.3704 1306.77 66.9984 1321.21 88.7322V208.128C1305.24 155.201 1276.34 105.341 1234.51 63.5143C1208.24 37.2422 1178.8 16.0708 1147.42 0H1240.72C1251.1 8.46808 1261.15 17.5383 1270.82 27.2106ZM738.263 0H831.567C800.187 16.0708 770.746 37.2422 744.474 63.5143L43.8225 764.166C33.7975 774.191 17.5438 774.191 7.51877 764.166C-2.50626 754.141 -2.50626 737.887 7.51877 727.862L708.17 27.2105C717.843 17.5382 727.889 8.46802 738.263 0ZM1075.79 233.096C1117.45 274.76 1117.45 342.31 1075.79 383.974L669.756 790H597.148L1039.48 347.67C1061.1 326.056 1061.1 291.014 1039.48 269.4C1017.87 247.786 982.827 247.786 961.213 269.4L440.613 790H368.006L924.909 233.096C966.573 191.433 1034.12 191.433 1075.79 233.096ZM1103.38 417.409C1163.51 357.277 1163.51 259.785 1103.38 199.654C1043.25 139.522 945.755 139.522 885.623 199.654L295.277 790H222.669L849.319 163.35C929.501 83.1685 1059.5 83.1685 1139.68 163.35C1219.86 243.531 1219.86 373.531 1139.68 453.712L803.394 790H730.787L1103.38 417.409ZM1168.95 131.575C1266.68 229.301 1266.68 387.746 1168.95 485.471L864.425 790H937.033L1205.26 521.775C1323.03 403.999 1323.03 213.047 1205.26 95.2717C1087.48 -22.5039 896.53 -22.504 778.755 95.2716L84.0265 790H156.634L815.058 131.575C912.784 33.8499 1071.23 33.8499 1168.95 131.575ZM1321.21 599.168C1314.86 606.4 1308.23 613.475 1301.33 620.377L1131.71 790H1204.32L1321.21 673.107V599.168ZM1321.21 0H1304.62C1310.35 5.84369 1315.88 11.807 1321.21 17.882V0ZM601.691 0L54.5619 547.129C44.5368 557.154 44.5368 573.408 54.5619 583.433C64.5868 593.458 80.8405 593.458 90.8656 583.433L674.299 0H601.691Z" fill="url(#paint0_linear_3947_23697)"/>
<defs>
<linearGradient id="paint0_linear_3947_23697" x1="846.709" y1="856" x2="868.709" y2="186.5" gradientUnits="userSpaceOnUse">
<stop stop-color="#EA1B15" stop-opacity="0"/>
<stop offset="1" stop-color="#EA1B15"/>
</linearGradient>
</defs>
</svg>
